<svg id="Layer_1" data-name="Layer 1" xmlns="http://www.w3.org/2000/svg" viewBox="0 0 392.9 344.7"><defs><style>.cls-1,.cls-6{fill:#fff;}.cls-2{fill:#ffd26e;}.cls-3{fill:#ff886e;}.cls-4{opacity:0.1;}.cls-5{fill:#ffbd66;}.cls-6{font-size:72px;font-family:PlateletOT-Heavy, Platelet OT;}</style></defs><title>Untitled-2</title><g id="Falling_Star" data-name="Falling Star"><g id="Falling_Star-2" data-name="Falling Star"><g id="Clound"><path class="cls-1" d="M526.91,151.86A41.08,41.08,0,0,0,498.78,163a41,41,0,0,0-29.49-5,67.3,67.3,0,0,0-121.18,7,40.91,40.91,0,0,0-51.77,39.44,41.36,41.36,0,0,0,.24,4.37H565.07a41.24,41.24,0,0,0-38.16-56.87Z" transform="translate(-224.68 -123.17)"/><path class="cls-1" d="M544.69,251.61a17.61,17.61,0,0,0-12.06,4.76A17.58,17.58,0,0,0,520,254.23a28.85,28.85,0,0,0-52,3,17.54,17.54,0,0,0-22.2,16.91,17.91,17.91,0,0,0,.1,1.87H561.05a17.68,17.68,0,0,0-16.36-24.38Z" transform="translate(-224.68 -123.17)"/></g><g id="Falling_Star_2" data-name="Falling Star 2"><path class="cls-2" d="M255.91,314.4s94-154.94,267.17-184.22l-31.73,33.58,50.89,3.91-46.93,22.47,62.13,16.53S350.85,235.58,279.85,341Z" transform="translate(-224.68 -123.17)"/><polygon class="cls-3" points="90.39 186.13 59.16 181.6 45.19 153.3 31.23 181.6 0 186.13 22.6 208.16 17.26 239.26 45.19 224.58 73.12 239.26 67.79 208.16 90.39 186.13"/><polygon class="cls-4" points="59.16 181.6 45.19 153.3 45.19 200.82 59.16 181.6"/><polygon class="cls-4" points="67.79 208.16 90.39 186.13 45.19 200.82 67.79 208.16"/><polygon class="cls-4" points="17.26 239.26 45.19 224.58 45.19 200.82 17.26 239.26"/><polygon class="cls-4" points="45.19 200.82 73.12 239.26 67.79 208.16 45.19 200.82"/><polygon class="cls-4" points="0 186.13 22.6 208.16 45.19 200.82 0 186.13"/></g><g id="Falling_Star_1" data-name="Falling Star 1"><path class="cls-3" d="M358.05,333.63s112.89-94,253.34-70.8l-33.17,17.38,38,16.41-41.89,4.86,43.27,29S448.4,299.59,369.4,360.3Z" transform="translate(-224.68 -123.17)"/><polygon class="cls-5" points="180.06 222.14 157.32 210.44 154.07 185.06 135.91 203.07 110.78 198.32 122.29 221.16 110.01 243.6 135.29 239.7 152.83 258.32 156.93 233.07 180.06 222.14"/><polygon class="cls-4" points="157.32 210.44 154.07 185.06 141.55 221.49 157.32 210.44"/><polygon class="cls-4" points="156.93 233.07 180.06 222.14 141.55 221.49 156.93 233.07"/><polygon class="cls-4" points="110.01 243.6 135.29 239.7 141.55 221.49 110.01 243.6"/><polygon class="cls-4" points="141.55 221.49 152.83 258.32 156.93 233.07 141.55 221.49"/><polygon class="cls-4" points="110.78 198.32 122.29 221.16 141.55 221.49 110.78 198.32"/></g><path class="cls-1" d="M278.46,191a8.58,8.58,0,0,1-8.58-8.58A8.58,8.58,0,0,1,261.3,191a8.58,8.58,0,0,1,8.58,8.58A8.58,8.58,0,0,1,278.46,191Z" transform="translate(-224.68 -123.17)"/><path class="cls-1" d="M521.69,410.92a8.58,8.58,0,0,1-8.58-8.58,8.58,8.58,0,0,1-8.58,8.58,8.58,8.58,0,0,1,8.58,8.58A8.58,8.58,0,0,1,521.69,410.92Z" transform="translate(-224.68 -123.17)"/><path class="cls-1" d="M324.65,410.92a8.58,8.58,0,0,1-8.58-8.58,8.58,8.58,0,0,1-8.58,8.58,8.58,8.58,0,0,1,8.58,8.58A8.58,8.58,0,0,1,324.65,410.92Z" transform="translate(-224.68 -123.17)"/></g></g>
<!--<text class="cls-6" transform="translate(108.9 325.69)" font-family='inherit'>Malax</text>-->
</svg>