<svg id="Layer_1" data-name="Layer 1" xmlns="http://www.w3.org/2000/svg" viewBox="0 0 290.4 290.4"><defs><style>.cls-1{fill:#fff;}.cls-2{fill:#273554;}.cls-3{opacity:0.1;}.cls-4{fill:#53a2d3;}.cls-5{fill:#bcbec0;}.cls-6{fill:#e6e7e8;}</style></defs><title>satelitebutton</title><rect id="Background" class="cls-1" width="290.4" height="290.4" rx="48.3" ry="48.3"/><g id="Satellite"><rect id="Background-2" data-name="Background" class="cls-2" x="25.2" y="25.2" width="240" height="240" rx="39.92" ry="39.92"/><polygon class="cls-3" points="265.2 174.33 189.83 98.39 185.78 95.61 178.24 100.54 167.66 116.94 147.29 96.56 92.23 94.95 112.75 145.22 133.22 165.69 128.6 171.27 119.72 164.73 115.18 171.51 107.33 166.65 106.56 166.65 94.26 183.72 94.67 185.28 113.78 198.11 112.4 201.05 176.03 265.2 265.2 265.2 265.2 174.33"/><g id="Satellite-2" data-name="Satellite"><g id="Satellite-3" data-name="Satellite"><rect class="cls-1" x="189.18" y="131.57" width="29.12" height="45.84" transform="translate(-40.16 231.21) rotate(-54.63)"/><rect class="cls-4" x="182.96" y="138.33" width="23.73" height="19.66" transform="translate(-38.76 221.28) rotate(-54.63)"/><rect class="cls-4" x="200.79" y="150.98" width="23.73" height="19.66" transform="translate(-41.56 241.15) rotate(-54.64)"/><rect class="cls-1" x="105.62" y="72.25" width="29.12" height="45.84" transform="translate(-26.99 138.08) rotate(-54.63)"/><rect class="cls-4" x="99.4" y="79.01" width="23.73" height="19.66" transform="translate(-25.59 128.15) rotate(-54.63)"/><rect class="cls-4" x="117.22" y="91.67" width="23.73" height="19.66" transform="translate(-28.4 148.02) rotate(-54.63)"/><rect class="cls-1" x="87.93" y="97.17" width="29.12" height="45.84" transform="translate(-54.76 134.16) rotate(-54.63)"/><rect class="cls-4" x="81.72" y="103.93" width="23.73" height="19.66" transform="matrix(0.58, -0.82, 0.82, 0.58, -53.35, 124.23)"/><rect class="cls-4" x="99.54" y="116.58" width="23.73" height="19.66" transform="translate(-56.16 144.09) rotate(-54.64)"/><rect class="cls-1" x="171.5" y="156.48" width="29.12" height="45.84" transform="translate(-67.93 227.29) rotate(-54.63)"/><rect class="cls-4" x="165.28" y="163.24" width="23.73" height="19.66" transform="translate(-66.52 217.36) rotate(-54.64)"/><rect class="cls-4" x="183.11" y="175.89" width="23.73" height="19.66" transform="translate(-69.33 237.23) rotate(-54.64)"/><circle class="cls-5" cx="127.29" cy="173.77" r="3.63" transform="translate(-88.09 177) rotate(-54.63)"/><circle class="cls-5" cx="134.47" cy="163.65" r="5.58" transform="translate(-76.81 178.58) rotate(-54.63)"/><rect class="cls-5" x="124.7" y="164.36" width="15.64" height="4.06" transform="translate(-79.87 178.15) rotate(-54.63)"/><rect class="cls-5" x="170.41" y="99.96" width="15.64" height="4.06" transform="translate(-8.1 188.29) rotate(-54.63)"/><rect class="cls-5" x="180.73" y="89.48" width="4.06" height="12.27" transform="translate(-0.99 189.29) rotate(-54.63)"/><rect class="cls-1" x="122.47" y="122.42" width="56.79" height="36.08" transform="translate(-51 182.18) rotate(-54.63)"/><polygon class="cls-5" points="171.61 160.16 163.22 154.21 164.56 152.16 172.95 158.11 171.61 160.16"/><rect class="cls-5" x="157.05" y="164.82" width="2.36" height="10.28" transform="translate(-71.95 200.63) rotate(-54.64)"/><polygon class="cls-5" points="116.94 139.32 125.33 145.27 123.94 147.07 115.56 141.12 116.94 139.32"/><polygon class="cls-5" points="126.76 125.33 135.15 131.28 133.8 133.33 125.42 127.38 126.76 125.33"/><rect class="cls-5" x="184.6" y="126.17" width="2.36" height="10.28" transform="translate(-28.83 206.82) rotate(-54.64)"/><rect class="cls-5" x="174.76" y="140.04" width="2.36" height="10.28" transform="translate(-44.28 204.63) rotate(-54.64)"/><polygon class="cls-5" points="134.63 114.41 143.01 120.36 141.62 122.15 133.24 116.2 134.63 114.41"/><polygon class="cls-5" points="144.47 100.54 152.85 106.49 151.46 108.29 143.08 102.34 144.47 100.54"/><circle class="cls-1" cx="167.3" cy="117.3" r="18.04" transform="translate(-25.19 185.83) rotate(-54.63)"/><rect class="cls-5" x="103.3" y="178.92" width="0.89" height="24.52" transform="translate(-112.21 165.16) rotate(-54.64)"/><rect class="cls-5" x="88.69" y="174.27" width="24.52" height="0.89" transform="translate(-99.95 155.9) rotate(-54.63)"/><rect class="cls-5" x="93.57" y="181.59" width="24.52" height="0.89" transform="translate(-28.92 20.24) rotate(-9.62)"/><path class="cls-1" d="M128.65,178.16a19.84,19.84,0,0,0-22.89-16.24L112.4,201A19.85,19.85,0,0,0,128.65,178.16Z"/><circle class="cls-1" cx="93.74" cy="184.09" r="2.66" transform="translate(-29.49 18.29) rotate(-9.64)"/><path class="cls-6" d="M156.48,122.89a4.07,4.07,0,0,1,5.66-1l2.48,1.76a4.07,4.07,0,0,1,1,5.67l-20.5,28.89a4.07,4.07,0,0,1-5.66,1l-2.48-1.76a4.07,4.07,0,0,1-1-5.66Z"/></g><g id="Star"><path class="cls-1" d="M118.83,44.3a4.54,4.54,0,0,1-6.25-1.47,4.54,4.54,0,0,1-1.47,6.25,4.54,4.54,0,0,1,6.25,1.47A4.54,4.54,0,0,1,118.83,44.3Z"/><path class="cls-1" d="M131.94,231.12a3.36,3.36,0,0,1-4.62-1.08,3.36,3.36,0,0,1-1.08,4.62,3.36,3.36,0,0,1,4.62,1.08A3.36,3.36,0,0,1,131.94,231.12Z"/><path class="cls-1" d="M217.36,129.67a3.36,3.36,0,0,1-4.62-1.08,3.36,3.36,0,0,1-1.08,4.62,3.36,3.36,0,0,1,4.62,1.08A3.36,3.36,0,0,1,217.36,129.67Z"/><path class="cls-1" d="M67.76,132.91a4.54,4.54,0,0,1-6.25-1.46,4.54,4.54,0,0,1-1.47,6.25,4.54,4.54,0,0,1,6.25,1.46A4.54,4.54,0,0,1,67.76,132.91Z"/><path class="cls-1" d="M211.92,150.86a4.54,4.54,0,0,1-6.25-1.46,4.54,4.54,0,0,1-1.47,6.25,4.54,4.54,0,0,1,6.25,1.47A4.54,4.54,0,0,1,211.92,150.86Z"/></g></g></g></svg>