<svg xmlns="http://www.w3.org/2000/svg" viewBox="0 0 290.4 290.4"><defs><style>.cls-1{isolation:isolate;}.cls-2{fill:#fff;}.cls-3{fill:#273554;}.cls-4{fill:#1b1c1c;stroke:#1b1c1c;stroke-width:7px;}.cls-10,.cls-4{stroke-linecap:round;stroke-linejoin:round;}.cls-5{fill:#e0e4cc;}.cls-6{fill:#414042;opacity:0.3;mix-blend-mode:lighten;}.cls-7{fill:#262525;}.cls-8{fill:#1c1b1b;}.cls-10,.cls-9{fill:none;}.cls-9{stroke:#647574;stroke-miterlimit:10;stroke-width:5px;}.cls-10{stroke:#acbcbb;stroke-width:2px;}</style></defs><title>vrbutton</title><g class="cls-1"><g id="Layer_1" data-name="Layer 1"><rect id="Background" class="cls-2" width="290.4" height="290.4" rx="48.3" ry="48.3"/><rect id="Background-2" data-name="Background" class="cls-3" x="25.2" y="25.2" width="240" height="240" rx="39.92" ry="39.92"/><rect class="cls-4" x="83.05" y="111.45" width="21.14" height="5.25"/><path class="cls-5" d="M99.37,152.61" transform="translate(0)"/><path class="cls-6" d="M134.55,133.49a361,361,0,0,0-31.15,18.4l1.21.94h6.11c7.88-4.67,15.85-9.22,23.83-13.76Z" transform="translate(0)"/><rect class="cls-4" x="123.1" y="99.23" width="44.2" height="10.97"/><path class="cls-5" d="M220.48,187.08H165.4l-6-2H131.87l-5.2,2H69.92c-6.45,0-11.67-5.85-11.67-13.07V120.83c0-7.22,5.23-13.07,11.67-13.07l41.95-6h65.55l43.07,6c6.45,0,11.67,5.85,11.67,13.07V174C232.16,181.22,226.93,187.08,220.48,187.08Z" transform="translate(0)"/><path class="cls-7" d="M219.1,185.75H168.17L159,178.6H131.87l-8.68,7.14H71.3c-6.45,0-11.67-5.85-11.67-13.07v-49.4c0-7.22,5.23-13.07,11.67-13.07H219.1c6.45,0,11.67,5.85,11.67,13.07v49.4C230.77,179.9,225.55,185.75,219.1,185.75Z" transform="translate(0)"/><path class="cls-8" d="M65.47,178.33v-49.4c0-7.22,5.23-13.07,11.67-13.07h147.8a10.55,10.55,0,0,1,4.27.91,11.51,11.51,0,0,0-10.12-6.56H71.3c-6.45,0-11.67,5.85-11.67,13.07v49.4A13.13,13.13,0,0,0,67,184.84,14.22,14.22,0,0,1,65.47,178.33Z" transform="translate(0)"/><path class="cls-5" d="M157.22,185.3" transform="translate(0)"/><path class="cls-9" d="M219.1,185.75H168.17L159,178.6H131.87l-8.68,7.14H71.3c-6.45,0-11.67-5.85-11.67-13.07v-49.4c0-7.22,5.23-13.07,11.67-13.07H219.1c6.45,0,11.67,5.85,11.67,13.07v49.4C230.77,179.9,225.55,185.75,219.1,185.75Z" transform="translate(0)"/><path class="cls-10" d="M59.63,135.79V123.27c0-7.22,5.23-13.07,11.67-13.07H82.84" transform="translate(0)"/><path class="cls-6" d="M219.1,110.2H168.71c-35.73,22.89-70.66,47-104,73.29a10.77,10.77,0,0,0,6.55,2.25H112c36.72-25.49,74.74-49.33,111.88-74.38A10.59,10.59,0,0,0,219.1,110.2Z" transform="translate(0)"/><path class="cls-6" d="M230.77,145.31a754.7,754.7,0,0,0-65.13,38.46l2.53,2h12.78c16.48-9.76,33.15-19.27,49.83-28.78Z" transform="translate(0)"/></g></g></svg>