<svg id="Layer_1" data-name="Layer 1" xmlns="http://www.w3.org/2000/svg" viewBox="0 0 290.4 290.4"><defs><style>.cls-1{fill:#fff;}.cls-2{fill:#273554;}.cls-3{fill:#d2d3d4;}.cls-4{fill:#f15c4d;}.cls-5{fill:#9edbf0;}.cls-6{fill:#7cd0e0;}.cls-7{fill:#f1607f;}.cls-8{fill:#002c40;}.cls-9{fill:#d8f0fa;}</style></defs><title>telescope</title><rect id="Background" class="cls-1" width="290.4" height="290.4" rx="48.3" ry="48.3"/><rect id="Background-2" data-name="Background" class="cls-2" x="26.4" y="25.3" width="240" height="240" rx="39.92" ry="39.92"/><g id="Telescope"><g id="Telescope-2" data-name="Telescope"><g id="Telescope-3" data-name="Telescope"><rect class="cls-3" x="140.02" y="125.58" width="6.48" height="22.08"/><rect class="cls-3" x="140.02" y="147.31" width="6.48" height="67.04"/><polygon class="cls-3" points="114.4 214 132.84 147.66 139.09 149.39 121.21 214 114.4 214"/><polygon class="cls-3" points="172.34 214 153.89 147.66 147.65 149.39 165.52 214 172.34 214"/><circle class="cls-4" cx="143.25" cy="147.67" r="6.58"/><rect class="cls-4" x="131.95" y="144.43" width="22.6" height="6.48"/><rect class="cls-5" x="97.95" y="73.19" width="40.51" height="58.08" transform="translate(-18.21 178.47) rotate(-70.05)"/><rect class="cls-6" x="146.18" y="98.84" width="36.58" height="40.36" transform="translate(-3.52 233.02) rotate(-70.05)"/><rect class="cls-7" x="195.19" y="112.6" width="14.4" height="40.36" transform="translate(8.53 277.73) rotate(-70.05)"/><path class="cls-8" d="M92.82,67.65l2.33.85a4.15,4.15,0,0,1,2.48,5.3L84.18,110.85a4.15,4.15,0,0,1-5.3,2.48l-2.33-.85Z"/><path class="cls-8" d="M225.42,129.84a1.94,1.94,0,0,1,1.34,2.36l-6,16.67a1.94,1.94,0,0,1-2.54.95l-.44-.16,7.25-20Z"/><rect class="cls-9" x="121.26" y="59.67" width="4.5" height="54.84" transform="translate(-0.49 173.49) rotate(-70.06)"/><rect class="cls-9" x="167.12" y="87.94" width="4.5" height="36.38" transform="translate(11.81 229.11) rotate(-70.04)"/><path class="cls-1" d="M84.69,90.07h0l8-22s-3.23.71-10.59,21h0C74.69,109.43,76.71,112,76.71,112l8-22h0Z"/></g></g></g></svg>